<?xml version="1.0" encoding="UTF-8" standalone="no"?>
<!DOCTYPE svg PUBLIC "-//W3C//DTD SVG 1.1//EN" "http://www.w3.org/Graphics/SVG/1.1/DTD/svg11.dtd">
<svg width="100%" height="100%" viewBox="0 0 190 457" version="1.1" xmlns="http://www.w3.org/2000/svg" xmlns:xlink="http://www.w3.org/1999/xlink" xml:space="preserve" xmlns:serif="http://www.serif.com/" style="fill-rule:evenodd;clip-rule:evenodd;stroke-linecap:round;stroke-linejoin:round;stroke-miterlimit:1.5;">
    <g transform="matrix(1,0,0,1,-713.199,-645.924)">
        <g transform="matrix(-1,0,0,1,1094.98,0)">
            <g>
                <g transform="matrix(0.106098,-0.385879,0.58025,0.159541,-265.507,1017.21)">
                    <path d="M259.082,889.575C259.082,889.575 215.434,924.469 215.434,955.193C215.434,985.916 234.992,1000.91 259.082,1000.91C283.172,1000.91 302.731,985.916 302.731,955.193C302.731,924.469 259.082,889.575 259.082,889.575Z"/>
                </g>
                <g transform="matrix(0.164592,-0.375332,0.518039,0.227172,-254.834,861.71)">
                    <path d="M259.082,889.575C259.082,889.575 215.434,924.469 215.434,955.193C215.434,985.916 234.992,1000.91 259.082,1000.91C283.172,1000.91 302.731,985.916 302.731,955.193C302.731,924.469 259.082,889.575 259.082,889.575Z"/>
                </g>
                <g transform="matrix(0.153547,-0.297998,0.525556,0.2708,-274.622,709.347)">
                    <path d="M259.082,889.575C259.082,889.575 215.434,924.469 215.434,955.193C215.434,985.916 234.992,1000.91 259.082,1000.91C283.172,1000.91 302.731,985.916 302.731,955.193C302.731,924.469 259.082,889.575 259.082,889.575Z"/>
                </g>
                <g transform="matrix(0.251211,-0.233749,0.44694,0.480329,-214.027,404.576)">
                    <path d="M259.082,889.575C259.082,889.575 215.434,924.469 215.434,955.193C215.434,985.916 234.992,1000.91 259.082,1000.91C283.172,1000.91 302.731,985.916 302.731,955.193C302.731,924.469 259.082,889.575 259.082,889.575Z"/>
                </g>
                <g transform="matrix(0.344718,-0.149656,0.218742,0.503852,22.7403,282.512)">
                    <path d="M259.082,889.575C259.082,889.575 215.434,924.469 215.434,955.193C215.434,985.916 234.992,1000.91 259.082,1000.91C283.172,1000.91 302.731,985.916 302.731,955.193C302.731,924.469 259.082,889.575 259.082,889.575Z"/>
                </g>
            </g>
            <g transform="matrix(0.219007,-0.796527,0.964217,0.265113,-679.077,1017.93)">
                <path d="M259.082,889.575C259.082,889.575 215.434,924.469 215.434,955.193C215.434,985.916 234.992,1000.91 259.082,1000.91C283.172,1000.91 302.731,985.916 302.731,955.193C302.731,924.469 259.082,889.575 259.082,889.575Z"/>
            </g>
            <g transform="matrix(0.331761,-0.756541,0.915813,0.401606,-696.28,785.882)">
                <path d="M259.082,889.575C259.082,889.575 215.434,924.469 215.434,955.193C215.434,985.916 234.992,1000.91 259.082,1000.91C283.172,1000.91 302.731,985.916 302.731,955.193C302.731,924.469 259.082,889.575 259.082,889.575Z"/>
            </g>
            <g transform="matrix(0.378377,-0.734337,0.888934,0.458035,-696.58,634.988)">
                <path d="M259.082,889.575C259.082,889.575 215.434,924.469 215.434,955.193C215.434,985.916 234.992,1000.91 259.082,1000.91C283.172,1000.91 302.731,985.916 302.731,955.193C302.731,924.469 259.082,889.575 259.082,889.575Z"/>
            </g>
            <g transform="matrix(0.604773,-0.562733,0.681203,0.732094,-540.106,237.816)">
                <path d="M259.082,889.575C259.082,889.575 215.434,924.469 215.434,955.193C215.434,985.916 234.992,1000.91 259.082,1000.91C283.172,1000.91 302.731,985.916 302.731,955.193C302.731,924.469 259.082,889.575 259.082,889.575Z"/>
            </g>
            <g transform="matrix(0.757758,-0.328973,0.39823,0.917285,-263.922,-84.8398)">
                <path d="M259.082,889.575C259.082,889.575 215.434,924.469 215.434,955.193C215.434,985.916 234.992,1000.91 259.082,1000.91C283.172,1000.91 302.731,985.916 302.731,955.193C302.731,924.469 259.082,889.575 259.082,889.575Z"/>
            </g>
            <path d="M344.091,733.249C248.895,857.614 289.981,1019.94 374.551,1090.01" style="fill:none;stroke:black;stroke-width:14.47px;"/>
        </g>
    </g>
</svg>
